<svg width="122" height="66" viewBox="0 0 122 66" fill="none" xmlns="http://www.w3.org/2000/svg">
<g clip-path="url(#clip0_1_53)">
<path d="M0.190598 0.190662H1.69995H101.3H101.925L102.367 0.632741L121.067 19.3327L121.509 19.7748V20.4V64V65.5094H120H20.2999H19.6724L19.2298 65.0644L0.629818 46.3644L0.190598 45.9228V45.3V1.70001V0.190662Z" fill="white"/>
<path fill-rule="evenodd" clip-rule="evenodd" d="M0.190598 0.190662H1.69995H101.3H101.925L102.367 0.632741L121.067 19.3327L121.509 19.7748V20.4V64V65.5094H120H20.2999H19.6724L19.2298 65.0644L0.629818 46.3644L0.190598 45.9228V45.3V1.70001V0.190662ZM3.2093 3.20936V43.7907H99.7906V3.20936H3.2093ZM20.9275 62.4907L5.33007 46.8094H100.675L116.356 62.4907H20.9275ZM118.491 60.356V21.0252L102.809 5.34391V44.6747L118.491 60.356Z" fill="#001A72"/>
<path d="M27.5 27.8C27.5 31.1 25.4 33.9 20.1 33.9C17.8 33.9 16 33.4 14.3 32.7V28.2C16 29.1 18.1 29.6 20 29.6C21.7 29.6 22.6 29.1 22.6 28.1C22.6 25.1 14.3 26 14.3 19.8C14.3 16 17.4 13.6 21.6 13.6C23.4 13.6 25 14 26.7 15V19.8C24.4 18.4 22.8 17.9 21.5 17.9C19.9 17.9 19.1 18.5 19.1 19.4C19 22.3 27.5 21.2 27.5 27.8Z" fill="#001A72"/>
<path d="M60.6 14.1L54.3 33.5H49.5L45.2 20.2L40.9 33.5H36.1L29.8 14.1H35.2L38.7 27.1L42.8 14.1H47.6L51.7 27.1L55.2 14.1H60.6V14.1Z" fill="#001A72"/>
<path d="M90.7 20.7V33.5H86V21.5C86 19.4 84.5 18.2 82.9 18.2C81.2 18.2 79.8 19.4 79.8 21.5V33.5H75V21.5C75 19.4 73.5 18.2 71.9 18.2C70.2 18.2 68.8 19.4 68.8 21.5V33.5H64V14.1H68.5V15.5C69.9 14.1 71.4 13.6 73.2 13.6C75.2 13.6 77 14.5 78.2 16.1C79.8 14.4 81.8 13.6 84.1 13.6C87.9 13.6 90.7 16.5 90.7 20.7Z" fill="#001A72"/>
</g>
<defs>
<clipPath id="clip0_1_53">
<rect width="122" height="66" fill="white"/>
</clipPath>
</defs>
</svg>
