<svg width="254" height="141" viewBox="0 0 254 141" fill="none" xmlns="http://www.w3.org/2000/svg">
<g clip-path="url(#clip0_1_21)">
<path d="M0.5 0.200012H202.721L253.599 51.078L253.702 140.8H51.3778L0.5 89.8205V0.200012Z" fill="white"/>
<path fill-rule="evenodd" clip-rule="evenodd" d="M0.5 0.200012H202.721L253.599 51.078L253.702 140.8H51.3778L0.5 89.8205V0.200012ZM3.5 3.20001V87.7H200.6V3.20001H3.5ZM52.6222 137.8L5.61621 90.7H201.479L248.579 137.8H52.6222ZM250.696 135.675L250.601 52.322L203.6 5.32132V88.5787L250.696 135.675Z" fill="#001A72"/>
<path d="M38.9001 36.6C38.9001 39.6 36.9 42.2 32.1 42.2C30 42.2 28.3 41.7 26.8 41.1V36.9C28.4 37.7 30.3 38.2 32 38.2C33.6 38.2 34.4001 37.7 34.4001 36.8C34.4001 34 26.8 34.9 26.8 29.2C26.8 25.7 29.6 23.6 33.5 23.6C35.1 23.6 36.6001 24 38.2001 24.9V29.2C36.1001 27.9 34.6001 27.5 33.4001 27.5C32.0001 27.5 31.2001 28 31.2001 28.9C31.2001 31.6 38.9001 30.6 38.9001 36.6Z" fill="#001A72"/>
<path d="M42.7 32.9C42.7 27.8 46.9 23.6 52 23.6C57.1 23.6 61.2999 27.8 61.2999 32.9C61.2999 38 57.1 42.2 52 42.2C46.9 42.2 42.7 38 42.7 32.9ZM56.7 32.9C56.7 30.1 54.6 28 52 28C49.4 28 47.2999 30.1 47.2999 32.9C47.2999 35.7 49.4 37.8 52 37.8C54.6 37.8 56.7 35.7 56.7 32.9Z" fill="#001A72"/>
<path d="M71.7 22.5V24H77.6L75.6 28.2H71.8V41.8H67.5V28.2H64.5V24H67.5V22.3C67.5 16.9 70.3 14.2 74.7 14.2C75.8 14.2 76.8 14.4 77.7 14.6V18.8C76.9 18.5 76 18.4 75.1 18.4C72.7 18.3 71.7 19.9 71.7 22.5Z" fill="#001A72"/>
<path d="M86.6 28.2V35.3C86.6 37.2 87.7 38 89.4 38C90.5 38 91.6 37.7 92.5 37.1V41.4C91.3 41.9 90.2 42.2 88.6 42.2C84.7 42.2 82.3 40.1 82.3 35.8V28.2H79.7V24H82.3V19.5L86.6 18.4V24H92.5V28.2H86.6Z" fill="#001A72"/>
<path d="M123.6 24L117.9 41.8H113.6L109.7 29.6L105.7 41.8H101.4L95.5 24H100.4L103.6 35.9L107.4 24H111.7L115.5 35.9L118.7 24H123.6Z" fill="#001A72"/>
<path d="M125.9 32.9C125.9 27.8 129.6 23.6 134.7 23.6C136.7 23.6 138.3 24.2 139.5 25.2V24H143.8V41.8H139.6V40.4C138.4 41.5 136.7 42.2 134.6 42.2C129.6 42.2 125.9 38 125.9 32.9ZM139.8 32.9C139.8 30.1 137.7 28 135.1 28C132.5 28 130.4 30.1 130.4 32.9C130.4 35.7 132.5 37.8 135.1 37.8C137.7 37.8 139.8 35.7 139.8 32.9Z" fill="#001A72"/>
<path d="M149.8 24H154V26.5C155.3 24.1 157.7 23.7 159.8 23.7V28.8C156.8 28 154.1 29.7 154.1 33.5V41.8H149.8V24Z" fill="#001A72"/>
<path d="M173.4 38C175.1 38 177.1 37.7 179.1 36.9L176.9 41.4C175.9 41.8 174.4 42.2 172.6 42.2C166.3 42.2 162.5 38.3 162.5 32.9C162.5 27.8 166.3 23.6 171.8 23.6C175.5 23.6 178.5 25.5 179.7 27.9V34.3H167.1C167.7 36.5 169.8 38 173.4 38ZM167.1 31H176.4C175.8 28.9 174 27.6 171.7 27.6C169.4 27.6 167.7 29 167.1 31Z" fill="#001A72"/>
<path d="M51.7 56.8V68.5H47.4V57.5C47.4 55.6 46 54.5 44.6 54.5C43.1 54.5 41.8 55.6 41.8 57.5V68.5H37.5V57.5C37.5 55.6 36.1 54.5 34.7 54.5C33.2 54.5 31.9 55.6 31.9 57.5V68.5H27.6V50.8H31.8V52.1C33.1 50.8 34.4 50.4 36.1 50.4C38 50.4 39.6 51.2 40.7 52.7C42.2 51.1 44 50.4 46.1 50.4C49.1 50.4 51.7 53.1 51.7 56.8Z" fill="#001A72"/>
<path d="M56.2 59.7C56.2 54.6 59.9 50.4 65 50.4C67 50.4 68.6 51 69.8 52V50.8H74.0999V68.6H70V67.2C68.8 68.3 67.1 69 65 69C60 68.9 56.2 64.8 56.2 59.7ZM70.1999 59.7C70.1999 56.9 68.1 54.8 65.5 54.8C62.9 54.8 60.7999 56.9 60.7999 59.7C60.7999 62.5 62.9 64.6 65.5 64.6C68.1 64.6 70.1999 62.5 70.1999 59.7Z" fill="#001A72"/>
<path d="M80 50.8H84.2V52.1C85.5 50.8 87.2 50.4 88.9 50.4C92.6 50.4 95.6 53.2 95.6 57V68.5H91.3V58C91.3 56.1 89.8 54.6 87.9 54.6C86 54.6 84.5 56.1 84.5 58V68.6H80V50.8Z" fill="#001A72"/>
<path d="M112.9 63.4C112.9 66.4 110.9 69 106.1 69C104 69 102.3 68.5 100.8 67.9V63.7C102.4 64.5 104.3 65 106 65C107.6 65 108.4 64.5 108.4 63.6C108.4 60.8 100.8 61.7 100.8 56C100.8 52.5 103.6 50.4 107.5 50.4C109.1 50.4 110.6 50.8 112.2 51.7V56C110.1 54.7 108.6 54.3 107.4 54.3C106 54.3 105.2 54.8 105.2 55.7C105.1 58.3 112.9 57.3 112.9 63.4Z" fill="#001A72"/>
<path d="M122.2 50.8V68.6H117.9V50.8H122.2Z" fill="#001A72"/>
<path d="M126.7 59.7C126.7 54.6 130.9 50.4 136 50.4C141.1 50.4 145.3 54.6 145.3 59.7C145.3 64.8 141.1 69 136 69C130.9 68.9 126.7 64.8 126.7 59.7ZM140.7 59.7C140.7 56.9 138.6 54.8 136 54.8C133.4 54.8 131.3 56.9 131.3 59.7C131.3 62.5 133.4 64.6 136 64.6C138.6 64.6 140.7 62.5 140.7 59.7Z" fill="#001A72"/>
<path d="M149.8 50.8H154V52.1C155.3 50.8 157 50.4 158.7 50.4C162.4 50.4 165.4 53.2 165.4 57V68.5H161.1V58C161.1 56.1 159.6 54.6 157.7 54.6C155.8 54.6 154.3 56.1 154.3 58V68.6H150V50.8H149.8Z" fill="#001A72"/>
<path d="M173.8 63.7V64.4H172.3V68.6H171.5V64.4H170V63.7H173.8Z" fill="#001A72"/>
<path d="M175.5 63.7L177.1 67.6L178.6 63.7H179.6V68.6H178.8V65L177.3 68.6H176.6L175.1 65V68.6H174.3V63.7C174.3 63.7 175.5 63.7 175.5 63.7Z" fill="#001A72"/>
</g>
<defs>
<clipPath id="clip0_1_21">
<rect width="254" height="141" fill="white"/>
</clipPath>
</defs>
</svg>
