<svg width="24" height="24" viewBox="0 0 24 24" fill="none" xmlns="http://www.w3.org/2000/svg">
  <path d="M8 14C11.3137 14 14 11.3137 14 8C14 4.68629 11.3137 2 8 2C4.68629 2 2 4.68629 2 8C2 11.3137 4.68629 14 8 14Z" stroke="#367135" stroke-width="2" stroke-linecap="round" stroke-linejoin="round"/>
  <path d="M18.09 10.3701C19.0353 10.7225 19.8765 11.3076 20.5358 12.0713C21.195 12.835 21.6511 13.7526 21.8618 14.7392C22.0724 15.7258 22.0309 16.7496 21.7411 17.716C21.4512 18.6823 20.9224 19.5599 20.2035 20.2677C19.4845 20.9755 18.5987 21.4906 17.628 21.7653C16.6573 22.0401 15.6329 22.0656 14.6497 21.8396C13.6665 21.6135 12.7561 21.1432 12.0029 20.4721C11.2496 19.801 10.6777 18.9508 10.34 18.0001" stroke="#367135" stroke-width="2" stroke-linecap="round" stroke-linejoin="round"/>
  <path d="M7 6H8V10" stroke="#367135" stroke-width="2" stroke-linecap="round" stroke-linejoin="round"/>
  <path d="M16.71 13.8799L17.41 14.5899L14.59 17.4099" stroke="#367135" stroke-width="2" stroke-linecap="round" stroke-linejoin="round"/>
</svg>
